HIERARCHY
ROOT root
{
	OFFSET	0	13.1	24.9
	CHANNELS 6  Xposition Yposition Zposition Xrotation Yrotation Zrotation
	JOINT spine_1
	{
		OFFSET	0	9.99999	0
		CHANNELS 3  Xrotation Yrotation Zrotation
		JOINT spine_2
		{
			OFFSET	0	112	-10
			CHANNELS 3  Xrotation Yrotation Zrotation
			JOINT spine_3
			{
				OFFSET	0	206.5	19.3
				CHANNELS 3  Xrotation Yrotation Zrotation
				JOINT spine_4
				{
					OFFSET	0	110.4	14.6
					CHANNELS 3  Xrotation Yrotation Zrotation
					JOINT neck_1
					{
						OFFSET	0	71.8	-50.3
						CHANNELS 3  Xrotation Yrotation Zrotation
						JOINT neck_2
						{
							OFFSET	0	86.2	-25.8
							CHANNELS 3  Xrotation Yrotation Zrotation
							JOINT head_ee
							{
								OFFSET	0	179.8	-8.7
								CHANNELS 3  Xrotation Yrotation Zrotation
								End Site
								{
									OFFSET	1	0	0
								}
							}
						}
					}
					JOINT left_clavicle
					{
						OFFSET	-43.2	22.4	-70.8
						CHANNELS 3  Xrotation Yrotation Zrotation
						JOINT left_shoulder
						{
							OFFSET	-93.9	-5.79999	48.7
							CHANNELS 3  Xrotation Yrotation Zrotation
							JOINT left_elbow
							{
								OFFSET	-291.4	-30.8	15.2
								CHANNELS 3  Xrotation Yrotation Zrotation
								JOINT left_lowarm_twist
								{
									OFFSET	-110.7	-3.89999	13.6
									CHANNELS 3  Xrotation Yrotation Zrotation
									JOINT left_hand
									{
										OFFSET	-110.7	-3.89999	13.6
										CHANNELS 3  Xrotation Yrotation Zrotation
										JOINT left_ee
										{
											OFFSET	-80.8	-5.10001	12.1
											CHANNELS 3  Xrotation Yrotation Zrotation
											End Site
											{
												OFFSET	1	0	0
											}
										}
									}
								}
							}
						}
					}
					JOINT right_clavicle
					{
						OFFSET	43.2	22.4	-70.8
						CHANNELS 3  Xrotation Yrotation Zrotation
						JOINT right_shoulder
						{
							OFFSET	93.9	-5.79999	48.7
							CHANNELS 3  Xrotation Yrotation Zrotation
							JOINT right_elbow
							{
								OFFSET	291.4	-30.8	15.2
								CHANNELS 3  Xrotation Yrotation Zrotation
								JOINT right_lowarm_twist
								{
									OFFSET	110.7	-3.89999	13.6
									CHANNELS 3  Xrotation Yrotation Zrotation
									JOINT right_hand
									{
										OFFSET	110.7	-3.89999	13.6
										CHANNELS 3  Xrotation Yrotation Zrotation
										JOINT right_ee
										{
											OFFSET	80.8	-5.10001	12.1
											CHANNELS 3  Xrotation Yrotation Zrotation
											End Site
											{
												OFFSET	1	0	0
											}
										}
									}
								}
							}
						}
					}
				}
			}
		}
	}
	JOINT left_hip
	{
		OFFSET	-82.8	-127.5	0.300001
		CHANNELS 3  Xrotation Yrotation Zrotation
		JOINT left_knee
		{
			OFFSET	-28.2	-396.7	2.2
			CHANNELS 3  Xrotation Yrotation Zrotation
			JOINT left_ankle
			{
				OFFSET	-11.7	-411.3	35.4
				CHANNELS 3  Xrotation Yrotation Zrotation
				JOINT left_toes
				{
					OFFSET	0	-60	-88.6
					CHANNELS 3  Xrotation Yrotation Zrotation
					JOINT left_foot_ee
					{
						OFFSET	-22.5	-16.5	-42.2
						CHANNELS 3  Xrotation Yrotation Zrotation
						End Site
						{
							OFFSET	1	0	0
						}
					}
				}
			}
		}
	}
	JOINT right_hip
	{
		OFFSET	82.8	-127.5	0.300001
		CHANNELS 3  Xrotation Yrotation Zrotation
		JOINT right_knee
		{
			OFFSET	28.2	-396.7	2.2
			CHANNELS 3  Xrotation Yrotation Zrotation
			JOINT right_ankle
			{
				OFFSET	11.7	-411.3	35.4
				CHANNELS 3  Xrotation Yrotation Zrotation
				JOINT right_toes
				{
					OFFSET	0	-60	-88.6
					CHANNELS 3  Xrotation Yrotation Zrotation
					JOINT right_foot_ee
					{
						OFFSET	22.5	-16.5	-42.2
						CHANNELS 3  Xrotation Yrotation Zrotation
						End Site
						{
							OFFSET	1	0	0
						}
					}
				}
			}
		}
	}
}
MOTION
Frames: 12
Frame Time: 0.02
2370.12 702.32 -1425.66 9.83749 59.6863 -8.35253 -2.52654 0.15277 0.755813 -2.52623 0.104367 0.764002 -2.52443 -0.0923501 0.765548 -2.52525 0.0297092 0.770525 -15.7165 11.3293 8.11148 -15.7973 17.0137 11.5233 -0.0 0.0 -0.0 4.52894 17.3074 9.04538 11.6896 -14.2895 54.4827 4.27119 -64.6833 2.70523 -71.5517 -6.74419 5.31349 -0.676004 -3.24725 -5.92934 -0.0 0.0 -0.0 11.917 25.016 -23.2994 -20.4395 8.40788 -61.3954 0.393274 11.0243 -0.0379523 66.5716 2.39259 7.67954 -6.85727 -29.3928 26.3666 0.0 0.0 0.0 -20.2466 15.9511 7.11933 -10.1669 0.283252 1.53253 41.1658 7.70677 -4.96345 -26.0188 0.0 0.0 -0.0 0.0 -0.0 24.6747 16.2482 -11.2877 0.356322 0.0148364 0.0526673 -11.4055 18.392 -1.91363 -7.74249 0.0 0.0 0.0 0.0 0.0 
2344.47 707.485 -1426.88 9.83433 59.2976 -8.70692 -2.44916 0.287329 0.891854 -2.44875 0.229998 0.908328 -2.44448 -0.00600735 0.936973 -2.44568 0.142039 0.926165 -15.3982 10.9497 5.19396 -15.6162 17.9327 8.63786 -0.0 0.0 -0.0 4.77465 19.3195 9.39925 8.19828 -13.1253 55.4114 4.71346 -66.7926 3.10851 -72.7299 -6.89475 5.3184 -0.724307 -3.45895 -6.34799 -0.0 0.0 -0.0 11.8592 24.9361 -23.1757 -20.3 8.51474 -61.7632 0.452496 12.6344 -0.0500938 67.7032 2.50559 7.77069 -6.65122 -29.3761 25.1182 0.0 0.0 0.0 -21.0808 17.4755 7.67622 -11.6109 0.301274 1.75336 39.9627 6.05095 -4.85544 -24.8514 0.0 0.0 -0.0 0.0 -0.0 23.9894 16.347 -10.9868 -3.36748 -0.123928 -0.501869 -13.0528 13.5565 -2.11068 -5.57837 0.0 0.0 0.0 0.0 0.0 
2323.42 705.344 -1430.13 9.53347 59.5225 -8.81324 -2.41783 0.357618 0.863556 -2.41746 0.301945 0.88456 -2.41218 0.0701414 0.932036 -2.41333 0.216453 0.909264 -15.1504 12.1355 2.86191 -15.5544 21.5428 6.86054 -0.0 0.0 -0.0 4.89732 20.3223 9.56182 4.90053 -13.405 55.3442 4.91818 -67.6599 3.29727 -73.1447 -6.94777 5.31939 -0.542672 -3.26611 -5.03689 -0.0 0.0 -0.0 11.8969 24.9706 -23.2582 -20.35 8.43823 -61.8549 0.485516 13.5236 -0.0575662 68.5233 2.58859 7.83534 -6.35639 -29.2907 23.4143 0.0 0.0 0.0 -21.643 17.7835 7.92051 -13.0134 0.313444 1.9682 36.7867 6.00657 -4.56891 -22.7731 0.0 0.0 -0.0 0.0 -0.0 23.803 16.2441 -10.4789 -6.28755 -0.207343 -0.942195 -12.2352 8.8307 -1.9184 -5.28453 0.0 0.0 0.0 0.0 0.0 
2301.51 704.527 -1442.06 8.74753 59.4809 -7.83146 -2.11612 0.366952 1.07877 -2.11552 0.297568 1.09993 -2.10895 0.0178502 1.13932 -2.11071 0.197549 1.12221 -14.8364 13.6496 0.902823 -15.4335 25.5668 5.53626 -0.0 0.0 -0.0 4.86481 21.455 9.48427 3.61642 -11.9006 55.3759 4.54401 -66.0249 2.95321 -72.4771 -6.86244 5.31761 -0.459483 -2.597 -4.18748 -0.0 0.0 -0.0 11.9051 24.7182 -23.3033 -20.0264 9.8076 -63.0521 0.566312 15.6708 -0.0779322 70.1106 2.75186 7.95711 -6.29858 -29.2987 23.0616 0.0 0.0 0.0 -21.524 16.7554 6.16085 -14.0854 0.319199 2.13258 32.9786 6.68031 -4.19851 -19.9232 0.0 0.0 -0.0 0.0 -0.0 23.0898 15.7828 -11.1306 -7.52716 -0.235945 -1.13027 -10.3787 6.62021 -1.6051 -4.13157 0.0 0.0 0.0 0.0 0.0 
2282.89 706.726 -1445.32 8.25887 59.3581 -7.90849 -1.91431 0.301029 1.31175 -1.91337 0.216957 1.32824 -1.90726 -0.111753 1.34119 -1.90975 0.101446 1.34201 -15.6395 15.3094 0.176543 -16.5341 29.2215 5.74138 -0.0 0.0 -0.0 4.73312 22.3395 9.27041 0.684751 -11.5055 55.3424 4.30629 -64.8637 2.73698 -71.5393 -6.74259 5.31342 -0.44481 -0.970604 -3.38889 -0.0 0.0 -0.0 12.6018 22.8422 -25.0883 -21.6567 14.0731 -61.6395 0.583835 16.1308 -0.0827331 70.0648 2.74709 7.95365 -6.2619 -29.3622 22.7876 0.0 0.0 0.0 -22.0215 18.4123 6.39887 -15.4694 0.322078 2.3449 29.4496 4.23807 -3.83116 -16.0619 0.0 0.0 -0.0 0.0 -0.0 22.8806 15.5912 -10.4936 -10.2971 -0.285106 -1.55243 -7.63627 8.94124 -1.19019 0.143327 -0.0 -0.0 0.0 0.0 0.0 
2266.25 711.036 -1448.8 9.43124 58.9182 -10.2921 -1.78318 0.463694 1.64833 -1.78174 0.357882 1.67448 -1.76953 -0.0548833 1.71141 -1.77355 0.216051 1.69861 -17.7967 15.1832 0.543635 -18.8939 28.8907 6.6585 -0.0 0.0 -0.0 4.58655 22.6837 9.05311 -1.74244 -12.4245 55.1419 3.74514 -61.6582 2.23564 -71.249 -6.70551 5.31172 -0.363547 3.23462 -1.0465 -0.0 0.0 -0.0 13.5799 24.5523 -27.1887 -20.9275 15.5097 -61.6008 0.432577 12.095 -0.0458283 71.5376 2.90146 8.06269 -6.48554 -29.2667 24.2126 0.0 0.0 0.0 -19.9836 19.2432 5.51922 -20.4744 0.289697 3.11192 27.2522 4.32828 -3.5897 -14.279 0.0 0.0 -0.0 0.0 -0.0 19.7015 15.7761 -8.62513 -9.34667 -0.270539 -1.40732 -3.36943 10.207 -0.524586 -0.299844 0.0 0.0 0.0 0.0 0.0 
2244.09 707.034 -1458.42 9.30554 59.353 -10.0419 -1.72056 0.406178 1.77576 -1.71886 0.292377 1.798 -1.70778 -0.146227 1.81573 -1.71236 0.142321 1.81604 -15.4715 16.8476 -1.27447 -16.6287 32.9892 5.00974 -0.0 0.0 -0.0 4.31437 23.5161 8.65391 -3.97422 -12.0428 55.0598 3.52262 -60.1696 2.04117 -69.2896 -6.45539 5.29532 -0.424401 2.12786 -1.92249 -0.0 0.0 -0.0 13.3408 22.3964 -26.846 -20.6859 16.7711 -61.298 0.585659 16.1786 -0.0832404 72.6277 3.01749 8.14082 -6.21418 -28.8697 22.93 0.0 0.0 0.0 -19.8069 20.5769 4.27146 -21.9286 0.267741 3.33396 26.784 5.06003 -3.53577 -13.8883 0.0 0.0 -0.0 0.0 -0.0 18.1266 15.2313 -8.32708 -10.0452 -0.28148 -1.51395 3.40142 11.5411 0.524465 -2.43591 0.0 0.0 0.0 0.0 0.0 
2225.51 710.126 -1465.75 9.26839 60.17 -10.3935 -1.66667 0.389959 1.87204 -1.66476 0.270068 1.89305 -1.65381 -0.188853 1.90287 -1.65884 0.113982 1.90881 -15.6899 17.6777 -1.93064 -17.0484 34.9593 4.8576 -0.0 0.0 -0.0 4.15702 24.0195 8.42841 -6.31738 -12.1736 55.0122 3.25535 -58.1832 1.81162 -68.3423 -6.33466 5.2843 -0.297982 3.26175 -0.601531 -0.0 0.0 -0.0 13.7242 21.8829 -27.7909 -19.8714 17.6738 -61.2456 0.571007 15.7942 -0.0792051 73.5772 3.11976 8.20708 -6.42151 -29.3824 23.7235 0.0 0.0 0.0 -19.5606 21.1323 3.45323 -22.9348 0.249252 3.48725 24.1148 4.33766 -3.23029 -14.0073 0.0 0.0 -0.0 0.0 -0.0 17.0113 14.8726 -8.1794 -9.66722 -0.275721 -1.45624 4.99029 7.27123 0.74774 -3.64648 0.0 0.0 0.0 0.0 0.0 
2208.8 708.078 -1471.38 9.66744 60.4766 -10.9519 -1.66756 0.451681 1.91389 -1.66558 0.329004 1.93874 -1.65226 -0.142421 1.96128 -1.65758 0.169053 1.95917 -14.6663 18.4087 -2.23063 -15.9861 36.4929 4.51921 -0.0 0.0 -0.0 4.10156 24.2331 8.34948 -8.1146 -11.9855 55.0455 2.97412 -55.8219 1.5757 -66.7029 -6.12616 5.2605 -0.284279 4.20617 -0.110926 -0.0 0.0 -0.0 14.0096 23.5668 -28.3016 -17.8528 18.5539 -62.8851 0.497838 13.8537 -0.0604821 74.4243 3.21191 8.26475 -6.54008 -29.5578 24.2789 0.0 0.0 0.0 -18.3475 21.5294 1.93045 -25.8635 0.180151 3.93133 24.0919 3.9934 -3.22848 -13.5998 0.0 0.0 -0.0 0.0 -0.0 15.5425 14.6891 -7.6729 -10.7133 -0.290727 -1.61605 11.6791 9.34678 1.72659 -2.51231 0.0 0.0 0.0 0.0 0.0 
2195.53 706.154 -1470.67 9.82427 62.0548 -11.5016 -1.62243 0.423792 1.8788 -1.62052 0.303402 1.90195 -1.60838 -0.157061 1.91958 -1.61349 0.148014 1.9203 -13.7463 19.3264 -2.54822 -15.0528 38.3905 4.25005 -0.0 0.0 -0.0 4.08219 23.8747 8.32719 -10.0608 -12.5644 55.7398 2.68968 -53.1012 1.34418 -65.1038 -5.92345 5.23151 -0.600097 5.4053 -1.67437 -0.0 0.0 -0.0 13.9529 24.6514 -28.0513 -14.1008 19.1926 -62.744 0.412189 11.5406 -0.041653 75.4978 3.3299 8.33588 -6.4415 -29.2802 23.9348 0.0 0.0 0.0 -18.599 22.1209 1.5202 -27.1586 0.142368 4.12649 24.8785 3.19947 -3.32267 -12.85 0.0 0.0 -0.0 0.0 -0.0 14.8423 13.8778 -6.70094 -10.9066 -0.29318 -1.64561 13.8581 7.91847 2.01558 -2.09237 0.0 0.0 0.0 0.0 0.0 
2184.83 704.117 -1471.11 10.8933 62.0345 -12.698 -1.53737 0.467734 1.90086 -1.53543 0.345852 1.92676 -1.52169 -0.11874 1.95394 -1.52697 0.191279 1.94818 -13.2553 18.8609 -2.63843 -14.3938 37.5343 3.7684 -0.0 0.0 -0.0 3.89176 23.8902 8.06474 -11.7929 -12.7761 56.1498 2.44729 -50.4741 1.15368 -64.142 -5.8019 5.21134 -0.654116 6.89332 -1.38577 -0.0 0.0 -0.0 13.9302 25.9704 -27.8434 -11.3803 19.662 -63.0287 0.386638 10.8427 -0.0366936 76.3368 3.42304 8.38994 -6.57178 -29.3942 24.619 0.0 0.0 0.0 -17.6003 22.0855 0.696012 -29.768 0.0528823 4.51693 25.2969 2.4453 -3.37397 -12.4509 0.0 0.0 -0.0 0.0 -0.0 13.8409 14.1502 -6.56584 -11.6542 -0.301728 -1.75999 17.4993 7.14533 2.49505 -1.4809 0.0 0.0 0.0 0.0 0.0 
2170.2 706.399 -1476.93 10.7888 61.0932 -12.8067 -1.56034 0.505543 2.00092 -1.55819 0.377222 2.02902 -1.54247 -0.113131 2.06067 -1.54833 0.213663 2.05269 -14.673 19.2667 -1.67257 -16.1219 37.8052 5.41659 -0.0 0.0 -0.0 3.5739 23.7444 7.62721 -13.785 -11.7179 56.5446 2.21174 -47.6065 0.975742 -63.6129 -5.73519 5.19937 -0.815936 7.77621 -2.05423 -0.0 0.0 -0.0 14.0829 25.649 -28.2403 -9.37426 20.134 -63.8562 0.401229 11.2416 -0.0394882 77.1001 3.50844 8.43792 -6.27467 -29.1489 23.0497 0.0 0.0 0.0 -16.8884 22.2413 -0.0400858 -31.5562 -0.0186814 4.78202 24.5314 1.98379 -3.2873 -12.2563 0.0 0.0 -0.0 0.0 -0.0 12.5312 14.0924 -5.96183 -11.6761 -0.301956 -1.76335 17.8306 7.71159 2.54491 -1.1563 0.0 0.0 0.0 0.0 0.0 
